<svg width="40" height="40" viewBox="0 0 22 22" fill="none" xmlns="http://www.w3.org/2000/svg">
  <path d="M11 0C5.477 0 1 4.477 1 10C1 14.418 3.868 18.168 7.938 19.525C8.438 19.6 8.625 19.325 8.625 19.075V17.438C6.688 17.963 6.188 16.763 6.188 16.763C5.75 15.9 5.125 15.688 5.125 15.688C4.188 15.188 5.188 15.2 5.188 15.2C6.188 15.263 6.688 16.238 6.688 16.238C7.563 17.813 9.063 17.35 9.688 17.075C9.813 16.463 10.063 16.013 10.375 15.763C7.563 15.513 4.625 14.563 4.625 10.325C4.625 9.125 5.063 8.2 5.75 7.513C5.625 7.263 5.188 6.113 5.875 4.613C5.875 4.613 6.75 4.35 8.625 5.763C9.438 5.513 10.313 5.388 11.188 5.388C12.063 5.388 12.938 5.513 13.75 5.763C15.625 4.35 16.5 4.613 16.5 4.613C17.188 6.113 16.75 7.263 16.625 7.513C17.313 8.2 17.75 9.125 17.75 10.325C17.75 14.575 14.813 15.513 12 15.763C12.313 16.013 12.563 16.463 12.688 17.075C13.313 17.35 14.813 17.813 15.688 16.238C15.688 16.238 16.188 15.263 17.188 15.2C17.188 15.2 18.188 15.188 17.25 15.688C17.25 15.688 16.625 15.9 16.188 16.763C16.188 16.763 15.688 17.963 13.75 17.438V19.075C13.75 19.325 13.938 19.6 14.438 19.525C18.508 18.168 21.375 14.418 21.375 10C21.375 4.477 16.898 0 11 0Z" fill="url(#paint1_linear)"/>
  <defs>
    <linearGradient id="paint1_linear" x1="1.59976" y1="8.08974e-07" x2="31.8368" y2="17.6727" gradientUnits="userSpaceOnUse">
      <stop offset="0.259336" stop-color="#FFDB6E"/>
      <stop offset="1" stop-color="#FFBC5E"/>
    </linearGradient>
  </defs>
</svg>
