<?xml version="1.0" standalone="no"?>
<!DOCTYPE svg PUBLIC "-//W3C//DTD SVG 20010904//EN"
 "http://www.w3.org/TR/2001/REC-SVG-20010904/DTD/svg10.dtd">
<svg version="1.0" xmlns="http://www.w3.org/2000/svg"
 width="192.000000pt" height="192.000000pt" viewBox="0 0 192.000000 192.000000"
 preserveAspectRatio="xMidYMid meet">
<metadata>
Created by potrace 1.16, written by Peter Selinger 2001-2019
</metadata>
<g transform="translate(0.000000,192.000000) scale(0.100000,-0.100000)"
fill="#000000" stroke="none">
<path d="M690 1573 c-39 -27 -59 -56 -60 -85 0 -25 -3 -27 -29 -22 -18 4 -45
-1 -73 -14 -51 -22 -58 -40 -58 -148 0 -48 3 -64 14 -64 10 0 15 20 18 81 4
91 11 100 83 109 38 5 41 3 58 -32 22 -44 67 -63 134 -55 62 7 92 38 99 102 6
60 -8 90 -55 122 -41 28 -97 30 -131 6z"/>
<path d="M1043 1362 c-90 -37 -137 -103 -152 -215 -6 -43 -11 -179 -11 -301 0
-179 3 -226 14 -235 9 -8 47 -11 107 -9 l94 3 3 151 3 151 49 -5 c85 -8 97 0
136 84 19 41 34 79 34 85 0 5 -48 9 -111 9 l-112 0 5 52 c8 78 63 107 93 48
l16 -30 94 0 95 0 0 29 c0 69 -66 158 -138 185 -55 21 -165 20 -219 -2z"/>
<path d="M642 933 l3 -328 100 0 100 0 5 175 c3 96 4 244 2 328 l-3 152 -105
0 -104 0 2 -327z"/>
</g>
</svg>
